<mxfile host="app.diagrams.net" modified="2024-07-04T12:59:43.330Z" agent="Mozilla/5.0 (Windows NT 10.0; Win64; x64) AppleWebKit/537.36 (KHTML, like Gecko) Chrome/126.0.0.0 Safari/537.36" etag="gutr9iWodJfujSsTlHQ-" version="24.6.4" type="device">
  <diagram name="Page-1" id="dCQCN4nlOt6v2w6bReEr">
    <mxGraphModel dx="868" dy="931" grid="1" gridSize="10" guides="1" tooltips="1" connect="1" arrows="1" fold="1" page="1" pageScale="1" pageWidth="827" pageHeight="1169" math="0" shadow="0">
      <root>
        <mxCell id="0" />
        <mxCell id="1" parent="0" />
        <mxCell id="8_G-h3lgZV2p1q91j_PW-1" value="Press green paly button" style="rounded=0;whiteSpace=wrap;html=1;" vertex="1" parent="1">
          <mxGeometry x="340" y="50" width="120" height="60" as="geometry" />
        </mxCell>
        <mxCell id="8_G-h3lgZV2p1q91j_PW-2" value="enter room" style="rounded=0;whiteSpace=wrap;html=1;" vertex="1" parent="1">
          <mxGeometry x="340" y="160" width="120" height="60" as="geometry" />
        </mxCell>
        <mxCell id="8_G-h3lgZV2p1q91j_PW-3" value="User presses button" style="rounded=0;whiteSpace=wrap;html=1;" vertex="1" parent="1">
          <mxGeometry x="340" y="270" width="120" height="60" as="geometry" />
        </mxCell>
        <mxCell id="8_G-h3lgZV2p1q91j_PW-4" value="Event happens when user press button -" style="rounded=0;whiteSpace=wrap;html=1;" vertex="1" parent="1">
          <mxGeometry x="340" y="390" width="120" height="60" as="geometry" />
        </mxCell>
        <mxCell id="8_G-h3lgZV2p1q91j_PW-5" value="Rooms cannot be entered until user press button" style="rounded=0;whiteSpace=wrap;html=1;" vertex="1" parent="1">
          <mxGeometry x="160" y="220" width="120" height="60" as="geometry" />
        </mxCell>
        <mxCell id="8_G-h3lgZV2p1q91j_PW-6" value="Doors unlock" style="rounded=0;whiteSpace=wrap;html=1;" vertex="1" parent="1">
          <mxGeometry x="170" y="490" width="120" height="60" as="geometry" />
        </mxCell>
        <mxCell id="8_G-h3lgZV2p1q91j_PW-7" value="Spooky ghost dialogue /instructions/timer" style="rounded=0;whiteSpace=wrap;html=1;" vertex="1" parent="1">
          <mxGeometry x="520" y="490" width="120" height="60" as="geometry" />
        </mxCell>
        <mxCell id="8_G-h3lgZV2p1q91j_PW-8" value="&lt;br&gt;&lt;span style=&quot;color: rgb(0, 0, 0); font-family: Helvetica; font-size: 12px; font-style: normal; font-variant-ligatures: normal; font-variant-caps: normal; font-weight: 400; letter-spacing: normal; orphans: 2; text-align: center; text-indent: 0px; text-transform: none; widows: 2; word-spacing: 0px; -webkit-text-stroke-width: 0px; white-space: normal; background-color: rgb(251, 251, 251); text-decoration-thickness: initial; text-decoration-style: initial; text-decoration-color: initial; display: inline !important; float: none;&quot;&gt;Solve puzzle 2 - get key for lock 2&lt;/span&gt;" style="rounded=0;whiteSpace=wrap;html=1;" vertex="1" parent="1">
          <mxGeometry x="354" y="750" width="120" height="80" as="geometry" />
        </mxCell>
        <mxCell id="8_G-h3lgZV2p1q91j_PW-9" value="&lt;br&gt;&lt;span style=&quot;color: rgb(0, 0, 0); font-family: Helvetica; font-size: 12px; font-style: normal; font-variant-ligatures: normal; font-variant-caps: normal; font-weight: 400; letter-spacing: normal; orphans: 2; text-align: center; text-indent: 0px; text-transform: none; widows: 2; word-spacing: 0px; -webkit-text-stroke-width: 0px; white-space: normal; background-color: rgb(251, 251, 251); text-decoration-thickness: initial; text-decoration-style: initial; text-decoration-color: initial; display: inline !important; float: none;&quot;&gt;Solve puzzle 3 - get key for lock 3&lt;/span&gt;&lt;div&gt;&lt;br/&gt;&lt;/div&gt;" style="rounded=0;whiteSpace=wrap;html=1;" vertex="1" parent="1">
          <mxGeometry x="630" y="750" width="120" height="80" as="geometry" />
        </mxCell>
        <mxCell id="8_G-h3lgZV2p1q91j_PW-10" value="Solve puzzle 1 - get key for lock 1" style="rounded=0;whiteSpace=wrap;html=1;" vertex="1" parent="1">
          <mxGeometry x="50" y="750" width="120" height="80" as="geometry" />
        </mxCell>
        <mxCell id="8_G-h3lgZV2p1q91j_PW-11" value="MIddle room has a door with 3 locks" style="rounded=0;whiteSpace=wrap;html=1;" vertex="1" parent="1">
          <mxGeometry x="354" y="590" width="120" height="60" as="geometry" />
        </mxCell>
        <mxCell id="8_G-h3lgZV2p1q91j_PW-12" value="Return to middle room" style="rounded=0;whiteSpace=wrap;html=1;" vertex="1" parent="1">
          <mxGeometry x="354" y="930" width="120" height="60" as="geometry" />
        </mxCell>
        <mxCell id="8_G-h3lgZV2p1q91j_PW-13" value="Use keys on each lock (drag/drop?)" style="rounded=0;whiteSpace=wrap;html=1;" vertex="1" parent="1">
          <mxGeometry x="354" y="1070" width="120" height="60" as="geometry" />
        </mxCell>
        <mxCell id="8_G-h3lgZV2p1q91j_PW-14" value="Leave/win" style="rounded=0;whiteSpace=wrap;html=1;" vertex="1" parent="1">
          <mxGeometry x="354" y="1190" width="120" height="60" as="geometry" />
        </mxCell>
        <mxCell id="8_G-h3lgZV2p1q91j_PW-15" value="Counter for keys complete" style="rounded=0;whiteSpace=wrap;html=1;" vertex="1" parent="1">
          <mxGeometry x="560" y="620" width="120" height="60" as="geometry" />
        </mxCell>
        <mxCell id="8_G-h3lgZV2p1q91j_PW-16" value="" style="endArrow=classic;html=1;rounded=0;exitX=0.5;exitY=1;exitDx=0;exitDy=0;entryX=0.5;entryY=0;entryDx=0;entryDy=0;" edge="1" parent="1" source="8_G-h3lgZV2p1q91j_PW-11" target="8_G-h3lgZV2p1q91j_PW-8">
          <mxGeometry width="50" height="50" relative="1" as="geometry">
            <mxPoint x="390" y="900" as="sourcePoint" />
            <mxPoint x="440" y="850" as="targetPoint" />
          </mxGeometry>
        </mxCell>
        <mxCell id="8_G-h3lgZV2p1q91j_PW-17" value="" style="endArrow=classic;html=1;rounded=0;exitX=1;exitY=0.75;exitDx=0;exitDy=0;" edge="1" parent="1" source="8_G-h3lgZV2p1q91j_PW-11">
          <mxGeometry width="50" height="50" relative="1" as="geometry">
            <mxPoint x="424" y="660" as="sourcePoint" />
            <mxPoint x="550" y="670" as="targetPoint" />
          </mxGeometry>
        </mxCell>
        <mxCell id="8_G-h3lgZV2p1q91j_PW-18" value="" style="endArrow=classic;html=1;rounded=0;exitX=0;exitY=1;exitDx=0;exitDy=0;entryX=1;entryY=0.25;entryDx=0;entryDy=0;" edge="1" parent="1" source="8_G-h3lgZV2p1q91j_PW-11" target="8_G-h3lgZV2p1q91j_PW-10">
          <mxGeometry width="50" height="50" relative="1" as="geometry">
            <mxPoint x="434" y="670" as="sourcePoint" />
            <mxPoint x="434" y="770" as="targetPoint" />
            <Array as="points">
              <mxPoint x="360" y="710" />
            </Array>
          </mxGeometry>
        </mxCell>
        <mxCell id="8_G-h3lgZV2p1q91j_PW-19" value="" style="endArrow=classic;html=1;rounded=0;exitX=1;exitY=1;exitDx=0;exitDy=0;entryX=0;entryY=0;entryDx=0;entryDy=0;" edge="1" parent="1" source="8_G-h3lgZV2p1q91j_PW-11" target="8_G-h3lgZV2p1q91j_PW-9">
          <mxGeometry width="50" height="50" relative="1" as="geometry">
            <mxPoint x="444" y="680" as="sourcePoint" />
            <mxPoint x="444" y="780" as="targetPoint" />
          </mxGeometry>
        </mxCell>
        <mxCell id="8_G-h3lgZV2p1q91j_PW-21" value="" style="endArrow=classic;html=1;rounded=0;exitX=0.5;exitY=1;exitDx=0;exitDy=0;entryX=1;entryY=0.75;entryDx=0;entryDy=0;" edge="1" parent="1" target="8_G-h3lgZV2p1q91j_PW-5">
          <mxGeometry width="50" height="50" relative="1" as="geometry">
            <mxPoint x="340" y="200" as="sourcePoint" />
            <mxPoint x="340" y="300" as="targetPoint" />
          </mxGeometry>
        </mxCell>
        <mxCell id="8_G-h3lgZV2p1q91j_PW-23" value="" style="endArrow=classic;html=1;rounded=0;exitX=0.5;exitY=1;exitDx=0;exitDy=0;entryX=0.5;entryY=0;entryDx=0;entryDy=0;" edge="1" parent="1" source="8_G-h3lgZV2p1q91j_PW-1" target="8_G-h3lgZV2p1q91j_PW-2">
          <mxGeometry width="50" height="50" relative="1" as="geometry">
            <mxPoint x="390" y="350" as="sourcePoint" />
            <mxPoint x="440" y="300" as="targetPoint" />
          </mxGeometry>
        </mxCell>
        <mxCell id="8_G-h3lgZV2p1q91j_PW-24" value="" style="endArrow=classic;html=1;rounded=0;exitX=0.5;exitY=1;exitDx=0;exitDy=0;entryX=0.5;entryY=0;entryDx=0;entryDy=0;" edge="1" parent="1">
          <mxGeometry width="50" height="50" relative="1" as="geometry">
            <mxPoint x="410" y="220" as="sourcePoint" />
            <mxPoint x="410" y="270" as="targetPoint" />
            <Array as="points" />
          </mxGeometry>
        </mxCell>
        <mxCell id="8_G-h3lgZV2p1q91j_PW-25" value="" style="endArrow=classic;html=1;rounded=0;exitX=0.5;exitY=1;exitDx=0;exitDy=0;entryX=0.5;entryY=0;entryDx=0;entryDy=0;" edge="1" parent="1">
          <mxGeometry width="50" height="50" relative="1" as="geometry">
            <mxPoint x="399.38" y="330" as="sourcePoint" />
            <mxPoint x="399.38" y="380" as="targetPoint" />
          </mxGeometry>
        </mxCell>
        <mxCell id="8_G-h3lgZV2p1q91j_PW-26" value="" style="endArrow=classic;html=1;rounded=0;exitX=0.5;exitY=1;exitDx=0;exitDy=0;" edge="1" parent="1">
          <mxGeometry width="50" height="50" relative="1" as="geometry">
            <mxPoint x="412" y="450" as="sourcePoint" />
            <mxPoint x="300" y="510" as="targetPoint" />
          </mxGeometry>
        </mxCell>
        <mxCell id="8_G-h3lgZV2p1q91j_PW-27" value="" style="endArrow=classic;html=1;rounded=0;exitX=0.61;exitY=1.004;exitDx=0;exitDy=0;entryX=0;entryY=0.25;entryDx=0;entryDy=0;exitPerimeter=0;" edge="1" parent="1" source="8_G-h3lgZV2p1q91j_PW-4" target="8_G-h3lgZV2p1q91j_PW-7">
          <mxGeometry width="50" height="50" relative="1" as="geometry">
            <mxPoint x="422" y="460" as="sourcePoint" />
            <mxPoint x="310" y="520" as="targetPoint" />
          </mxGeometry>
        </mxCell>
        <mxCell id="8_G-h3lgZV2p1q91j_PW-28" value="" style="endArrow=classic;html=1;rounded=0;" edge="1" parent="1" target="8_G-h3lgZV2p1q91j_PW-11">
          <mxGeometry width="50" height="50" relative="1" as="geometry">
            <mxPoint x="290" y="550" as="sourcePoint" />
            <mxPoint x="340" y="500" as="targetPoint" />
          </mxGeometry>
        </mxCell>
        <mxCell id="8_G-h3lgZV2p1q91j_PW-29" value="" style="endArrow=classic;html=1;rounded=0;exitX=0;exitY=1;exitDx=0;exitDy=0;entryX=1;entryY=0;entryDx=0;entryDy=0;" edge="1" parent="1" source="8_G-h3lgZV2p1q91j_PW-7" target="8_G-h3lgZV2p1q91j_PW-11">
          <mxGeometry width="50" height="50" relative="1" as="geometry">
            <mxPoint x="300" y="560" as="sourcePoint" />
            <mxPoint x="371" y="600" as="targetPoint" />
          </mxGeometry>
        </mxCell>
        <mxCell id="8_G-h3lgZV2p1q91j_PW-30" value="" style="endArrow=classic;html=1;rounded=0;exitX=0.5;exitY=1;exitDx=0;exitDy=0;entryX=0.5;entryY=0;entryDx=0;entryDy=0;" edge="1" parent="1">
          <mxGeometry width="50" height="50" relative="1" as="geometry">
            <mxPoint x="412" y="830" as="sourcePoint" />
            <mxPoint x="412" y="930" as="targetPoint" />
          </mxGeometry>
        </mxCell>
        <mxCell id="8_G-h3lgZV2p1q91j_PW-31" value="" style="endArrow=classic;html=1;rounded=0;exitX=0.5;exitY=1;exitDx=0;exitDy=0;entryX=0.5;entryY=0;entryDx=0;entryDy=0;" edge="1" parent="1" target="8_G-h3lgZV2p1q91j_PW-13">
          <mxGeometry width="50" height="50" relative="1" as="geometry">
            <mxPoint x="414" y="990" as="sourcePoint" />
            <mxPoint x="414" y="1090" as="targetPoint" />
          </mxGeometry>
        </mxCell>
        <mxCell id="8_G-h3lgZV2p1q91j_PW-32" value="" style="endArrow=classic;html=1;rounded=0;entryX=0.5;entryY=0;entryDx=0;entryDy=0;exitX=0.5;exitY=1;exitDx=0;exitDy=0;" edge="1" parent="1" source="8_G-h3lgZV2p1q91j_PW-13" target="8_G-h3lgZV2p1q91j_PW-14">
          <mxGeometry width="50" height="50" relative="1" as="geometry">
            <mxPoint x="390" y="1100" as="sourcePoint" />
            <mxPoint x="440" y="1050" as="targetPoint" />
          </mxGeometry>
        </mxCell>
      </root>
    </mxGraphModel>
  </diagram>
</mxfile>
